<svg width="106" height="103" viewBox="0 0 106 103" fill="none" xmlns="http://www.w3.org/2000/svg">
<path d="M10.2002 96.4863L11.5264 96.8213C11.2484 97.9105 10.7471 98.7422 10.0225 99.3164C9.30241 99.8861 8.42057 100.171 7.37695 100.171C6.29688 100.171 5.41732 99.9521 4.73828 99.5146C4.0638 99.0726 3.54883 98.4346 3.19336 97.6006C2.84245 96.7666 2.66699 95.8711 2.66699 94.9141C2.66699 93.8704 2.86523 92.9613 3.26172 92.1865C3.66276 91.4072 4.23014 90.8171 4.96387 90.416C5.70215 90.0104 6.51335 89.8076 7.39746 89.8076C8.40007 89.8076 9.24316 90.0628 9.92676 90.5732C10.6104 91.0837 11.0866 91.8014 11.3555 92.7266L10.0498 93.0342C9.81738 92.305 9.48014 91.7741 9.03809 91.4414C8.59603 91.1087 8.04004 90.9424 7.37012 90.9424C6.59993 90.9424 5.95508 91.127 5.43555 91.4961C4.92057 91.8652 4.55827 92.362 4.34863 92.9863C4.139 93.6061 4.03418 94.2464 4.03418 94.9072C4.03418 95.7594 4.15723 96.5046 4.40332 97.1426C4.65397 97.776 5.04134 98.25 5.56543 98.5645C6.08952 98.8789 6.6569 99.0361 7.26758 99.0361C8.01042 99.0361 8.63932 98.8219 9.1543 98.3936C9.66927 97.9652 10.0179 97.3294 10.2002 96.4863ZM12.5518 96.3701C12.5518 95.0257 12.9255 94.0299 13.6729 93.3828C14.2972 92.8451 15.0583 92.5762 15.9561 92.5762C16.9541 92.5762 17.7699 92.9043 18.4033 93.5605C19.0368 94.2122 19.3535 95.1146 19.3535 96.2676C19.3535 97.2018 19.2122 97.9378 18.9297 98.4756C18.6517 99.0088 18.2438 99.4235 17.7061 99.7197C17.1729 100.016 16.5895 100.164 15.9561 100.164C14.9398 100.164 14.1172 99.8382 13.4883 99.1865C12.8639 98.5348 12.5518 97.596 12.5518 96.3701ZM13.8164 96.3701C13.8164 97.2998 14.0192 97.9971 14.4248 98.4619C14.8304 98.9222 15.3408 99.1523 15.9561 99.1523C16.5667 99.1523 17.0749 98.9199 17.4805 98.4551C17.8861 97.9902 18.0889 97.2816 18.0889 96.3291C18.0889 95.4313 17.8838 94.7523 17.4736 94.292C17.068 93.8271 16.5622 93.5947 15.9561 93.5947C15.3408 93.5947 14.8304 93.8249 14.4248 94.2852C14.0192 94.7454 13.8164 95.4404 13.8164 96.3701ZM20.8027 100V92.7402H21.9102V93.7725C22.4434 92.9749 23.2135 92.5762 24.2207 92.5762C24.6582 92.5762 25.0592 92.6559 25.4238 92.8154C25.793 92.9704 26.0687 93.1755 26.251 93.4307C26.4333 93.6859 26.5609 93.9889 26.6338 94.3398C26.6794 94.5677 26.7021 94.9665 26.7021 95.5361V100H25.4717V95.584C25.4717 95.0827 25.4238 94.709 25.3281 94.4629C25.2324 94.2122 25.0615 94.014 24.8154 93.8682C24.5739 93.7178 24.2891 93.6426 23.9609 93.6426C23.4368 93.6426 22.9834 93.8089 22.6006 94.1416C22.2223 94.4743 22.0332 95.1055 22.0332 96.0352V100H20.8027ZM28.1035 97.833L29.3203 97.6416C29.3887 98.1292 29.5778 98.5029 29.8877 98.7627C30.2021 99.0225 30.6396 99.1523 31.2002 99.1523C31.7653 99.1523 32.1846 99.0384 32.458 98.8105C32.7314 98.5781 32.8682 98.307 32.8682 97.9971C32.8682 97.7191 32.7474 97.5003 32.5059 97.3408C32.3372 97.2314 31.918 97.0924 31.248 96.9238C30.3457 96.696 29.7191 96.5 29.3682 96.3359C29.0218 96.1673 28.7575 95.9372 28.5752 95.6455C28.3975 95.3493 28.3086 95.0234 28.3086 94.668C28.3086 94.3444 28.3815 94.0459 28.5273 93.7725C28.6777 93.4945 28.8805 93.2643 29.1357 93.082C29.3271 92.9408 29.5869 92.8223 29.915 92.7266C30.2477 92.6263 30.6032 92.5762 30.9814 92.5762C31.5511 92.5762 32.0501 92.6582 32.4785 92.8223C32.9115 92.9863 33.2305 93.2096 33.4355 93.4922C33.6406 93.7702 33.7819 94.1439 33.8594 94.6133L32.6562 94.7773C32.6016 94.4036 32.4421 94.112 32.1777 93.9023C31.918 93.6927 31.5488 93.5879 31.0703 93.5879C30.5052 93.5879 30.1019 93.6813 29.8604 93.8682C29.6188 94.055 29.498 94.2738 29.498 94.5244C29.498 94.6839 29.5482 94.8275 29.6484 94.9551C29.7487 95.0872 29.9059 95.1966 30.1201 95.2832C30.2432 95.3288 30.6055 95.4336 31.207 95.5977C32.0775 95.8301 32.6836 96.0215 33.0254 96.1719C33.3717 96.3177 33.6429 96.5319 33.8389 96.8145C34.0348 97.097 34.1328 97.4479 34.1328 97.8672C34.1328 98.2773 34.012 98.6647 33.7705 99.0293C33.5335 99.3893 33.1895 99.6696 32.7383 99.8701C32.2871 100.066 31.7767 100.164 31.207 100.164C30.2637 100.164 29.5436 99.9681 29.0469 99.5762C28.5547 99.1842 28.2402 98.6032 28.1035 97.833ZM40.3535 100V98.9336C39.7884 99.7539 39.0205 100.164 38.0498 100.164C37.6214 100.164 37.2204 100.082 36.8467 99.918C36.4775 99.7539 36.2018 99.5488 36.0195 99.3027C35.8418 99.0521 35.7165 98.7467 35.6436 98.3867C35.5934 98.1452 35.5684 97.7624 35.5684 97.2383V92.7402H36.7988V96.7666C36.7988 97.4092 36.8239 97.8421 36.874 98.0654C36.9515 98.389 37.1156 98.6442 37.3662 98.8311C37.6169 99.0133 37.9268 99.1045 38.2959 99.1045C38.665 99.1045 39.0114 99.0111 39.335 98.8242C39.6585 98.6328 39.8864 98.3753 40.0186 98.0518C40.1553 97.7236 40.2236 97.2497 40.2236 96.6299V92.7402H41.4541V100H40.3535ZM43.3613 100V89.9785H44.5918V100H43.3613ZM49.1924 98.8994L49.3701 99.9863C49.0238 100.059 48.7139 100.096 48.4404 100.096C47.9938 100.096 47.6475 100.025 47.4014 99.8838C47.1553 99.7425 46.9821 99.5579 46.8818 99.3301C46.7816 99.0977 46.7314 98.6123 46.7314 97.874V93.6973H45.8291V92.7402H46.7314V90.9424L47.9551 90.2041V92.7402H49.1924V93.6973H47.9551V97.9424C47.9551 98.2933 47.9756 98.5189 48.0166 98.6191C48.0622 98.7194 48.1328 98.7992 48.2285 98.8584C48.3288 98.9176 48.4701 98.9473 48.6523 98.9473C48.7891 98.9473 48.9691 98.9313 49.1924 98.8994ZM55.1396 99.1045C54.6839 99.4919 54.2441 99.7653 53.8203 99.9248C53.401 100.084 52.9499 100.164 52.4668 100.164C51.6693 100.164 51.0563 99.9704 50.6279 99.583C50.1995 99.1911 49.9854 98.6921 49.9854 98.0859C49.9854 97.7305 50.0651 97.4069 50.2246 97.1152C50.3887 96.819 50.6006 96.582 50.8604 96.4043C51.1247 96.2266 51.4209 96.0921 51.749 96.001C51.9906 95.9372 52.3551 95.8757 52.8428 95.8164C53.8363 95.6979 54.5677 95.5566 55.0371 95.3926C55.0417 95.224 55.0439 95.1169 55.0439 95.0713C55.0439 94.57 54.9277 94.2168 54.6953 94.0117C54.3809 93.7337 53.9137 93.5947 53.2939 93.5947C52.7152 93.5947 52.2868 93.6973 52.0088 93.9023C51.7354 94.1029 51.5326 94.4606 51.4004 94.9756L50.1973 94.8115C50.3066 94.2965 50.4867 93.8818 50.7373 93.5674C50.988 93.2484 51.3503 93.0046 51.8242 92.8359C52.2982 92.6628 52.8473 92.5762 53.4717 92.5762C54.0915 92.5762 54.5951 92.6491 54.9824 92.7949C55.3698 92.9408 55.6546 93.1253 55.8369 93.3486C56.0192 93.5674 56.1468 93.8454 56.2197 94.1826C56.2607 94.3923 56.2812 94.7705 56.2812 95.3174V96.958C56.2812 98.1019 56.3063 98.8265 56.3564 99.1318C56.4111 99.4326 56.516 99.722 56.6709 100H55.3857C55.2581 99.7448 55.1761 99.4463 55.1396 99.1045ZM55.0371 96.3564C54.5905 96.5387 53.9206 96.6937 53.0273 96.8213C52.5215 96.8942 52.1637 96.9762 51.9541 97.0674C51.7445 97.1585 51.5827 97.293 51.4688 97.4707C51.3548 97.6439 51.2979 97.8376 51.2979 98.0518C51.2979 98.3799 51.4209 98.6533 51.667 98.8721C51.9176 99.0908 52.2822 99.2002 52.7607 99.2002C53.2347 99.2002 53.6562 99.0977 54.0254 98.8926C54.3945 98.6829 54.6657 98.3981 54.8389 98.0381C54.971 97.7601 55.0371 97.3499 55.0371 96.8076V96.3564ZM66.8018 100V99.084C66.3415 99.804 65.6647 100.164 64.7715 100.164C64.1927 100.164 63.6595 100.005 63.1719 99.6855C62.6888 99.3665 62.3128 98.9222 62.0439 98.3525C61.7796 97.7783 61.6475 97.1198 61.6475 96.377C61.6475 95.6523 61.7682 94.9961 62.0098 94.4082C62.2513 93.8158 62.6136 93.3623 63.0967 93.0479C63.5798 92.7334 64.1198 92.5762 64.7168 92.5762C65.1543 92.5762 65.5439 92.6696 65.8857 92.8564C66.2275 93.0387 66.5055 93.278 66.7197 93.5742V89.9785H67.9434V100H66.8018ZM62.9121 96.377C62.9121 97.3066 63.1081 98.0016 63.5 98.4619C63.8919 98.9222 64.3545 99.1523 64.8877 99.1523C65.4255 99.1523 65.8812 98.9336 66.2549 98.4961C66.6331 98.054 66.8223 97.3818 66.8223 96.4795C66.8223 95.486 66.6309 94.7568 66.248 94.292C65.8652 93.8271 65.3936 93.5947 64.833 93.5947C64.2861 93.5947 63.8281 93.818 63.459 94.2646C63.0944 94.7113 62.9121 95.4154 62.9121 96.377ZM74.8545 97.6621L76.126 97.8193C75.9255 98.5622 75.554 99.1387 75.0117 99.5488C74.4694 99.959 73.7767 100.164 72.9336 100.164C71.8717 100.164 71.0286 99.8382 70.4043 99.1865C69.7845 98.5303 69.4746 97.612 69.4746 96.4316C69.4746 95.2103 69.7891 94.2624 70.418 93.5879C71.0469 92.9134 71.8626 92.5762 72.8652 92.5762C73.8359 92.5762 74.6289 92.9066 75.2441 93.5674C75.8594 94.2282 76.167 95.1579 76.167 96.3564C76.167 96.4294 76.1647 96.5387 76.1602 96.6846H70.7461C70.7917 97.4821 71.0173 98.0928 71.4229 98.5166C71.8285 98.9404 72.3343 99.1523 72.9404 99.1523C73.3916 99.1523 73.7767 99.0339 74.0957 98.7969C74.4147 98.5599 74.6676 98.1816 74.8545 97.6621ZM70.8145 95.6729H74.8682C74.8135 95.0622 74.6585 94.6042 74.4033 94.2988C74.0114 93.8249 73.5033 93.5879 72.8789 93.5879C72.3138 93.5879 71.8376 93.777 71.4502 94.1553C71.0674 94.5335 70.8555 95.0394 70.8145 95.6729ZM81.6768 100V89.9785H83.0029V98.8174H87.9385V100H81.6768ZM88.9092 96.3701C88.9092 95.0257 89.2829 94.0299 90.0303 93.3828C90.6546 92.8451 91.4157 92.5762 92.3135 92.5762C93.3115 92.5762 94.1273 92.9043 94.7607 93.5605C95.3942 94.2122 95.7109 95.1146 95.7109 96.2676C95.7109 97.2018 95.5697 97.9378 95.2871 98.4756C95.0091 99.0088 94.6012 99.4235 94.0635 99.7197C93.5303 100.016 92.9469 100.164 92.3135 100.164C91.2972 100.164 90.4746 99.8382 89.8457 99.1865C89.2214 98.5348 88.9092 97.596 88.9092 96.3701ZM90.1738 96.3701C90.1738 97.2998 90.3766 97.9971 90.7822 98.4619C91.1878 98.9222 91.6982 99.1523 92.3135 99.1523C92.9242 99.1523 93.4323 98.9199 93.8379 98.4551C94.2435 97.9902 94.4463 97.2816 94.4463 96.3291C94.4463 95.4313 94.2412 94.7523 93.8311 94.292C93.4255 93.8271 92.9196 93.5947 92.3135 93.5947C91.6982 93.5947 91.1878 93.8249 90.7822 94.2852C90.3766 94.7454 90.1738 95.4404 90.1738 96.3701ZM96.9346 100.602L98.1309 100.779C98.181 101.148 98.32 101.417 98.5479 101.586C98.8532 101.814 99.2702 101.928 99.7988 101.928C100.368 101.928 100.808 101.814 101.118 101.586C101.428 101.358 101.638 101.039 101.747 100.629C101.811 100.378 101.84 99.8519 101.836 99.0498C101.298 99.6833 100.628 100 99.8262 100C98.8281 100 98.0557 99.64 97.5088 98.9199C96.9619 98.1999 96.6885 97.3363 96.6885 96.3291C96.6885 95.6364 96.8138 94.9984 97.0645 94.415C97.3151 93.8271 97.6774 93.3737 98.1514 93.0547C98.6299 92.7357 99.1904 92.5762 99.833 92.5762C100.69 92.5762 101.396 92.9225 101.952 93.6152V92.7402H103.087V99.0156C103.087 100.146 102.971 100.946 102.738 101.415C102.51 101.889 102.146 102.263 101.645 102.536C101.148 102.81 100.535 102.946 99.8057 102.946C98.9398 102.946 98.2402 102.75 97.707 102.358C97.1738 101.971 96.9163 101.385 96.9346 100.602ZM97.9531 96.2402C97.9531 97.1927 98.1423 97.8877 98.5205 98.3252C98.8988 98.7627 99.3727 98.9814 99.9424 98.9814C100.507 98.9814 100.981 98.765 101.364 98.332C101.747 97.8945 101.938 97.2109 101.938 96.2812C101.938 95.3926 101.74 94.7227 101.344 94.2715C100.952 93.8203 100.478 93.5947 99.9219 93.5947C99.375 93.5947 98.9102 93.818 98.5273 94.2646C98.1445 94.7067 97.9531 95.3652 97.9531 96.2402Z" fill="#003C44"/>
<circle cx="52.5" cy="41.5" r="41.5" fill="#32BCAD"/>
<path d="M36.3333 53.6667V50.3333H53V53.6667H36.3333ZM36.3333 45.3333V42H44.6667V45.3333H36.3333ZM36.3333 37V33.6667H44.6667V37H36.3333ZM67.3333 53.6667L60.9167 47.25C60.25 47.7222 59.5208 48.0764 58.7292 48.3125C57.9375 48.5486 57.1389 48.6667 56.3333 48.6667C54.0278 48.6667 52.0625 47.8542 50.4375 46.2292C48.8125 44.6042 48 42.6389 48 40.3333C48 38.0278 48.8125 36.0625 50.4375 34.4375C52.0625 32.8125 54.0278 32 56.3333 32C58.6389 32 60.6042 32.8125 62.2292 34.4375C63.8542 36.0625 64.6667 38.0278 64.6667 40.3333C64.6667 41.1389 64.5486 41.9375 64.3125 42.7292C64.0764 43.5208 63.7222 44.25 63.25 44.9167L69.6667 51.3333L67.3333 53.6667ZM56.3333 45.3333C57.7222 45.3333 58.9028 44.8472 59.875 43.875C60.8472 42.9028 61.3333 41.7222 61.3333 40.3333C61.3333 38.9444 60.8472 37.7639 59.875 36.7917C58.9028 35.8194 57.7222 35.3333 56.3333 35.3333C54.9444 35.3333 53.7639 35.8194 52.7917 36.7917C51.8194 37.7639 51.3333 38.9444 51.3333 40.3333C51.3333 41.7222 51.8194 42.9028 52.7917 43.875C53.7639 44.8472 54.9444 45.3333 56.3333 45.3333Z" fill="white"/>
</svg>
