<svg width="106" height="104" viewBox="0 0 106 104" fill="none" xmlns="http://www.w3.org/2000/svg">
<path d="M10.2002 97.4863L11.5264 97.8213C11.2484 98.9105 10.7471 99.7422 10.0225 100.316C9.30241 100.886 8.42057 101.171 7.37695 101.171C6.29688 101.171 5.41732 100.952 4.73828 100.515C4.0638 100.073 3.54883 99.4346 3.19336 98.6006C2.84245 97.7666 2.66699 96.8711 2.66699 95.9141C2.66699 94.8704 2.86523 93.9613 3.26172 93.1865C3.66276 92.4072 4.23014 91.8171 4.96387 91.416C5.70215 91.0104 6.51335 90.8076 7.39746 90.8076C8.40007 90.8076 9.24316 91.0628 9.92676 91.5732C10.6104 92.0837 11.0866 92.8014 11.3555 93.7266L10.0498 94.0342C9.81738 93.305 9.48014 92.7741 9.03809 92.4414C8.59603 92.1087 8.04004 91.9424 7.37012 91.9424C6.59993 91.9424 5.95508 92.127 5.43555 92.4961C4.92057 92.8652 4.55827 93.362 4.34863 93.9863C4.139 94.6061 4.03418 95.2464 4.03418 95.9072C4.03418 96.7594 4.15723 97.5046 4.40332 98.1426C4.65397 98.776 5.04134 99.25 5.56543 99.5645C6.08952 99.8789 6.6569 100.036 7.26758 100.036C8.01042 100.036 8.63932 99.8219 9.1543 99.3936C9.66927 98.9652 10.0179 98.3294 10.2002 97.4863ZM12.5518 97.3701C12.5518 96.0257 12.9255 95.0299 13.6729 94.3828C14.2972 93.8451 15.0583 93.5762 15.9561 93.5762C16.9541 93.5762 17.7699 93.9043 18.4033 94.5605C19.0368 95.2122 19.3535 96.1146 19.3535 97.2676C19.3535 98.2018 19.2122 98.9378 18.9297 99.4756C18.6517 100.009 18.2438 100.424 17.7061 100.72C17.1729 101.016 16.5895 101.164 15.9561 101.164C14.9398 101.164 14.1172 100.838 13.4883 100.187C12.8639 99.5348 12.5518 98.596 12.5518 97.3701ZM13.8164 97.3701C13.8164 98.2998 14.0192 98.9971 14.4248 99.4619C14.8304 99.9222 15.3408 100.152 15.9561 100.152C16.5667 100.152 17.0749 99.9199 17.4805 99.4551C17.8861 98.9902 18.0889 98.2816 18.0889 97.3291C18.0889 96.4313 17.8838 95.7523 17.4736 95.292C17.068 94.8271 16.5622 94.5947 15.9561 94.5947C15.3408 94.5947 14.8304 94.8249 14.4248 95.2852C14.0192 95.7454 13.8164 96.4404 13.8164 97.3701ZM20.8027 101V93.7402H21.9102V94.7725C22.4434 93.9749 23.2135 93.5762 24.2207 93.5762C24.6582 93.5762 25.0592 93.6559 25.4238 93.8154C25.793 93.9704 26.0687 94.1755 26.251 94.4307C26.4333 94.6859 26.5609 94.9889 26.6338 95.3398C26.6794 95.5677 26.7021 95.9665 26.7021 96.5361V101H25.4717V96.584C25.4717 96.0827 25.4238 95.709 25.3281 95.4629C25.2324 95.2122 25.0615 95.014 24.8154 94.8682C24.5739 94.7178 24.2891 94.6426 23.9609 94.6426C23.4368 94.6426 22.9834 94.8089 22.6006 95.1416C22.2223 95.4743 22.0332 96.1055 22.0332 97.0352V101H20.8027ZM28.1035 98.833L29.3203 98.6416C29.3887 99.1292 29.5778 99.5029 29.8877 99.7627C30.2021 100.022 30.6396 100.152 31.2002 100.152C31.7653 100.152 32.1846 100.038 32.458 99.8105C32.7314 99.5781 32.8682 99.307 32.8682 98.9971C32.8682 98.7191 32.7474 98.5003 32.5059 98.3408C32.3372 98.2314 31.918 98.0924 31.248 97.9238C30.3457 97.696 29.7191 97.5 29.3682 97.3359C29.0218 97.1673 28.7575 96.9372 28.5752 96.6455C28.3975 96.3493 28.3086 96.0234 28.3086 95.668C28.3086 95.3444 28.3815 95.0459 28.5273 94.7725C28.6777 94.4945 28.8805 94.2643 29.1357 94.082C29.3271 93.9408 29.5869 93.8223 29.915 93.7266C30.2477 93.6263 30.6032 93.5762 30.9814 93.5762C31.5511 93.5762 32.0501 93.6582 32.4785 93.8223C32.9115 93.9863 33.2305 94.2096 33.4355 94.4922C33.6406 94.7702 33.7819 95.1439 33.8594 95.6133L32.6562 95.7773C32.6016 95.4036 32.4421 95.112 32.1777 94.9023C31.918 94.6927 31.5488 94.5879 31.0703 94.5879C30.5052 94.5879 30.1019 94.6813 29.8604 94.8682C29.6188 95.055 29.498 95.2738 29.498 95.5244C29.498 95.6839 29.5482 95.8275 29.6484 95.9551C29.7487 96.0872 29.9059 96.1966 30.1201 96.2832C30.2432 96.3288 30.6055 96.4336 31.207 96.5977C32.0775 96.8301 32.6836 97.0215 33.0254 97.1719C33.3717 97.3177 33.6429 97.5319 33.8389 97.8145C34.0348 98.097 34.1328 98.4479 34.1328 98.8672C34.1328 99.2773 34.012 99.6647 33.7705 100.029C33.5335 100.389 33.1895 100.67 32.7383 100.87C32.2871 101.066 31.7767 101.164 31.207 101.164C30.2637 101.164 29.5436 100.968 29.0469 100.576C28.5547 100.184 28.2402 99.6032 28.1035 98.833ZM40.3535 101V99.9336C39.7884 100.754 39.0205 101.164 38.0498 101.164C37.6214 101.164 37.2204 101.082 36.8467 100.918C36.4775 100.754 36.2018 100.549 36.0195 100.303C35.8418 100.052 35.7165 99.7467 35.6436 99.3867C35.5934 99.1452 35.5684 98.7624 35.5684 98.2383V93.7402H36.7988V97.7666C36.7988 98.4092 36.8239 98.8421 36.874 99.0654C36.9515 99.389 37.1156 99.6442 37.3662 99.8311C37.6169 100.013 37.9268 100.104 38.2959 100.104C38.665 100.104 39.0114 100.011 39.335 99.8242C39.6585 99.6328 39.8864 99.3753 40.0186 99.0518C40.1553 98.7236 40.2236 98.2497 40.2236 97.6299V93.7402H41.4541V101H40.3535ZM43.3613 101V90.9785H44.5918V101H43.3613ZM49.1924 99.8994L49.3701 100.986C49.0238 101.059 48.7139 101.096 48.4404 101.096C47.9938 101.096 47.6475 101.025 47.4014 100.884C47.1553 100.743 46.9821 100.558 46.8818 100.33C46.7816 100.098 46.7314 99.6123 46.7314 98.874V94.6973H45.8291V93.7402H46.7314V91.9424L47.9551 91.2041V93.7402H49.1924V94.6973H47.9551V98.9424C47.9551 99.2933 47.9756 99.5189 48.0166 99.6191C48.0622 99.7194 48.1328 99.7992 48.2285 99.8584C48.3288 99.9176 48.4701 99.9473 48.6523 99.9473C48.7891 99.9473 48.9691 99.9313 49.1924 99.8994ZM55.1396 100.104C54.6839 100.492 54.2441 100.765 53.8203 100.925C53.401 101.084 52.9499 101.164 52.4668 101.164C51.6693 101.164 51.0563 100.97 50.6279 100.583C50.1995 100.191 49.9854 99.6921 49.9854 99.0859C49.9854 98.7305 50.0651 98.4069 50.2246 98.1152C50.3887 97.819 50.6006 97.582 50.8604 97.4043C51.1247 97.2266 51.4209 97.0921 51.749 97.001C51.9906 96.9372 52.3551 96.8757 52.8428 96.8164C53.8363 96.6979 54.5677 96.5566 55.0371 96.3926C55.0417 96.224 55.0439 96.1169 55.0439 96.0713C55.0439 95.57 54.9277 95.2168 54.6953 95.0117C54.3809 94.7337 53.9137 94.5947 53.2939 94.5947C52.7152 94.5947 52.2868 94.6973 52.0088 94.9023C51.7354 95.1029 51.5326 95.4606 51.4004 95.9756L50.1973 95.8115C50.3066 95.2965 50.4867 94.8818 50.7373 94.5674C50.988 94.2484 51.3503 94.0046 51.8242 93.8359C52.2982 93.6628 52.8473 93.5762 53.4717 93.5762C54.0915 93.5762 54.5951 93.6491 54.9824 93.7949C55.3698 93.9408 55.6546 94.1253 55.8369 94.3486C56.0192 94.5674 56.1468 94.8454 56.2197 95.1826C56.2607 95.3923 56.2812 95.7705 56.2812 96.3174V97.958C56.2812 99.1019 56.3063 99.8265 56.3564 100.132C56.4111 100.433 56.516 100.722 56.6709 101H55.3857C55.2581 100.745 55.1761 100.446 55.1396 100.104ZM55.0371 97.3564C54.5905 97.5387 53.9206 97.6937 53.0273 97.8213C52.5215 97.8942 52.1637 97.9762 51.9541 98.0674C51.7445 98.1585 51.5827 98.293 51.4688 98.4707C51.3548 98.6439 51.2979 98.8376 51.2979 99.0518C51.2979 99.3799 51.4209 99.6533 51.667 99.8721C51.9176 100.091 52.2822 100.2 52.7607 100.2C53.2347 100.2 53.6562 100.098 54.0254 99.8926C54.3945 99.6829 54.6657 99.3981 54.8389 99.0381C54.971 98.7601 55.0371 98.3499 55.0371 97.8076V97.3564ZM66.8018 101V100.084C66.3415 100.804 65.6647 101.164 64.7715 101.164C64.1927 101.164 63.6595 101.005 63.1719 100.686C62.6888 100.367 62.3128 99.9222 62.0439 99.3525C61.7796 98.7783 61.6475 98.1198 61.6475 97.377C61.6475 96.6523 61.7682 95.9961 62.0098 95.4082C62.2513 94.8158 62.6136 94.3623 63.0967 94.0479C63.5798 93.7334 64.1198 93.5762 64.7168 93.5762C65.1543 93.5762 65.5439 93.6696 65.8857 93.8564C66.2275 94.0387 66.5055 94.278 66.7197 94.5742V90.9785H67.9434V101H66.8018ZM62.9121 97.377C62.9121 98.3066 63.1081 99.0016 63.5 99.4619C63.8919 99.9222 64.3545 100.152 64.8877 100.152C65.4255 100.152 65.8812 99.9336 66.2549 99.4961C66.6331 99.054 66.8223 98.3818 66.8223 97.4795C66.8223 96.486 66.6309 95.7568 66.248 95.292C65.8652 94.8271 65.3936 94.5947 64.833 94.5947C64.2861 94.5947 63.8281 94.818 63.459 95.2646C63.0944 95.7113 62.9121 96.4154 62.9121 97.377ZM74.8545 98.6621L76.126 98.8193C75.9255 99.5622 75.554 100.139 75.0117 100.549C74.4694 100.959 73.7767 101.164 72.9336 101.164C71.8717 101.164 71.0286 100.838 70.4043 100.187C69.7845 99.5303 69.4746 98.612 69.4746 97.4316C69.4746 96.2103 69.7891 95.2624 70.418 94.5879C71.0469 93.9134 71.8626 93.5762 72.8652 93.5762C73.8359 93.5762 74.6289 93.9066 75.2441 94.5674C75.8594 95.2282 76.167 96.1579 76.167 97.3564C76.167 97.4294 76.1647 97.5387 76.1602 97.6846H70.7461C70.7917 98.4821 71.0173 99.0928 71.4229 99.5166C71.8285 99.9404 72.3343 100.152 72.9404 100.152C73.3916 100.152 73.7767 100.034 74.0957 99.7969C74.4147 99.5599 74.6676 99.1816 74.8545 98.6621ZM70.8145 96.6729H74.8682C74.8135 96.0622 74.6585 95.6042 74.4033 95.2988C74.0114 94.8249 73.5033 94.5879 72.8789 94.5879C72.3138 94.5879 71.8376 94.777 71.4502 95.1553C71.0674 95.5335 70.8555 96.0394 70.8145 96.6729ZM81.6768 101V90.9785H83.0029V99.8174H87.9385V101H81.6768ZM88.9092 97.3701C88.9092 96.0257 89.2829 95.0299 90.0303 94.3828C90.6546 93.8451 91.4157 93.5762 92.3135 93.5762C93.3115 93.5762 94.1273 93.9043 94.7607 94.5605C95.3942 95.2122 95.7109 96.1146 95.7109 97.2676C95.7109 98.2018 95.5697 98.9378 95.2871 99.4756C95.0091 100.009 94.6012 100.424 94.0635 100.72C93.5303 101.016 92.9469 101.164 92.3135 101.164C91.2972 101.164 90.4746 100.838 89.8457 100.187C89.2214 99.5348 88.9092 98.596 88.9092 97.3701ZM90.1738 97.3701C90.1738 98.2998 90.3766 98.9971 90.7822 99.4619C91.1878 99.9222 91.6982 100.152 92.3135 100.152C92.9242 100.152 93.4323 99.9199 93.8379 99.4551C94.2435 98.9902 94.4463 98.2816 94.4463 97.3291C94.4463 96.4313 94.2412 95.7523 93.8311 95.292C93.4255 94.8271 92.9196 94.5947 92.3135 94.5947C91.6982 94.5947 91.1878 94.8249 90.7822 95.2852C90.3766 95.7454 90.1738 96.4404 90.1738 97.3701ZM96.9346 101.602L98.1309 101.779C98.181 102.148 98.32 102.417 98.5479 102.586C98.8532 102.814 99.2702 102.928 99.7988 102.928C100.368 102.928 100.808 102.814 101.118 102.586C101.428 102.358 101.638 102.039 101.747 101.629C101.811 101.378 101.84 100.852 101.836 100.05C101.298 100.683 100.628 101 99.8262 101C98.8281 101 98.0557 100.64 97.5088 99.9199C96.9619 99.1999 96.6885 98.3363 96.6885 97.3291C96.6885 96.6364 96.8138 95.9984 97.0645 95.415C97.3151 94.8271 97.6774 94.3737 98.1514 94.0547C98.6299 93.7357 99.1904 93.5762 99.833 93.5762C100.69 93.5762 101.396 93.9225 101.952 94.6152V93.7402H103.087V100.016C103.087 101.146 102.971 101.946 102.738 102.415C102.51 102.889 102.146 103.263 101.645 103.536C101.148 103.81 100.535 103.946 99.8057 103.946C98.9398 103.946 98.2402 103.75 97.707 103.358C97.1738 102.971 96.9163 102.385 96.9346 101.602ZM97.9531 97.2402C97.9531 98.1927 98.1423 98.8877 98.5205 99.3252C98.8988 99.7627 99.3727 99.9814 99.9424 99.9814C100.507 99.9814 100.981 99.765 101.364 99.332C101.747 98.8945 101.938 98.2109 101.938 97.2812C101.938 96.3926 101.74 95.7227 101.344 95.2715C100.952 94.8203 100.478 94.5947 99.9219 94.5947C99.375 94.5947 98.9102 94.818 98.5273 95.2646C98.1445 95.7067 97.9531 96.3652 97.9531 97.2402Z" fill="#003C44"/>
<circle cx="52.5" cy="42.5" r="41.5" fill="white" stroke="#32BCAD" stroke-width="2"/>
<path d="M36.3333 54.6667V51.3333H53V54.6667H36.3333ZM36.3333 46.3333V43H44.6667V46.3333H36.3333ZM36.3333 38V34.6667H44.6667V38H36.3333ZM67.3333 54.6667L60.9167 48.25C60.25 48.7222 59.5208 49.0764 58.7292 49.3125C57.9375 49.5486 57.1389 49.6667 56.3333 49.6667C54.0278 49.6667 52.0625 48.8542 50.4375 47.2292C48.8125 45.6042 48 43.6389 48 41.3333C48 39.0278 48.8125 37.0625 50.4375 35.4375C52.0625 33.8125 54.0278 33 56.3333 33C58.6389 33 60.6042 33.8125 62.2292 35.4375C63.8542 37.0625 64.6667 39.0278 64.6667 41.3333C64.6667 42.1389 64.5486 42.9375 64.3125 43.7292C64.0764 44.5208 63.7222 45.25 63.25 45.9167L69.6667 52.3333L67.3333 54.6667ZM56.3333 46.3333C57.7222 46.3333 58.9028 45.8472 59.875 44.875C60.8472 43.9028 61.3333 42.7222 61.3333 41.3333C61.3333 39.9444 60.8472 38.7639 59.875 37.7917C58.9028 36.8194 57.7222 36.3333 56.3333 36.3333C54.9444 36.3333 53.7639 36.8194 52.7917 37.7917C51.8194 38.7639 51.3333 39.9444 51.3333 41.3333C51.3333 42.7222 51.8194 43.9028 52.7917 44.875C53.7639 45.8472 54.9444 46.3333 56.3333 46.3333Z" fill="#32BCAD"/>
</svg>
