<svg width="368" height="75" viewBox="0 0 368 75" fill="none" xmlns="http://www.w3.org/2000/svg">
<path d="M102.72 74L114.12 4H129.02L140.42 74H129.42L127.42 60.1V60.3H114.92L112.92 74H102.72ZM116.22 50.8H126.12L121.22 16.2H121.02L116.22 50.8ZM161.061 75C150.461 75 144.861 68.6 144.861 57.8V20.2C144.861 9.4 150.461 3 161.061 3C171.661 3 177.261 9.4 177.261 20.2V27.6H166.861V19.5C166.861 14.9 164.661 13 161.361 13C158.061 13 155.861 14.9 155.861 19.5V58.6C155.861 63.2 158.061 65 161.361 65C164.661 65 166.861 63.2 166.861 58.6V47.9H177.261V57.8C177.261 68.6 171.661 75 161.061 75ZM183.842 74V4H213.842V14H194.842V32.5H209.942V42.5H194.842V64H213.842V74H183.842ZM220.17 74V4H231.17V64H249.27V74H220.17ZM254.545 74V4H284.545V14H265.545V32.5H280.645V42.5H265.545V64H284.545V74H254.545ZM290.873 74V4H307.173C318.573 4 323.473 9.3 323.473 20.1V24.4C323.473 31.6 321.173 36.2 316.273 38.2V38.4C321.773 40.1 323.573 45.3 323.573 53.2V65.5C323.573 68.9 323.673 71.4 324.773 74H313.573C312.973 72.2 312.573 71.1 312.573 65.4V52.6C312.573 46.1 310.673 44 305.673 44H301.873V74H290.873ZM301.873 34H305.873C309.973 34 312.473 32.2 312.473 26.6V21.2C312.473 16.2 310.773 14 306.873 14H301.873V34ZM328.305 74L339.705 4H354.605L366.005 74H355.005L353.005 60.1V60.3H340.505L338.505 74H328.305ZM341.805 50.8H351.705L346.805 16.2H346.605L341.805 50.8Z" fill="#003D44"/>
<path style="mix-blend-mode:multiply" d="M84.9728 73.7726C84.9728 73.7726 68.4153 41.4531 27.0986 73.7726H84.9728Z" fill="#003D44"/>
<path d="M54.9017 21.0222L42.7596 0L14.4546 48.9818C23.0571 38.332 36.0626 27.01 54.9017 21.016V21.0222Z" fill="#BFD730"/>
<path d="M58.651 27.5034C54.618 30.3154 50.2274 33.7872 45.7134 38.0422L66.4889 74H85.5192L58.651 27.5034Z" fill="#75C044"/>
<path d="M5.19873 74C5.19873 74 26.7327 19.5298 78.7794 24.0562C78.7794 24.0562 47.9584 27.8117 24.2291 74H5.19873Z" fill="#00AE9D"/>
<path d="M0 74C0 74 26.7325 19.5298 78.7792 24.0562C78.7792 24.0562 40.0833 27.8117 16.3602 74H0Z" fill="#00AE9D"/>
</svg>
