<svg width="106" height="104" viewBox="0 0 106 104" fill="none" xmlns="http://www.w3.org/2000/svg">
<path d="M36.2451 101V90.9785H43.0059V92.1611H37.5713V95.2646H42.2744V96.4473H37.5713V101H36.2451ZM44.585 92.3936V90.9785H45.8154V92.3936H44.585ZM44.585 101V93.7402H45.8154V101H44.585ZM47.668 101V90.9785H48.8984V101H47.668ZM53.499 99.8994L53.6768 100.986C53.3304 101.059 53.0205 101.096 52.7471 101.096C52.3005 101.096 51.9541 101.025 51.708 100.884C51.4619 100.743 51.2887 100.558 51.1885 100.33C51.0882 100.098 51.0381 99.6123 51.0381 98.874V94.6973H50.1357V93.7402H51.0381V91.9424L52.2617 91.2041V93.7402H53.499V94.6973H52.2617V98.9424C52.2617 99.2933 52.2822 99.5189 52.3232 99.6191C52.3688 99.7194 52.4395 99.7992 52.5352 99.8584C52.6354 99.9176 52.7767 99.9473 52.959 99.9473C53.0957 99.9473 53.2757 99.9313 53.499 99.8994ZM54.6953 101V93.7402H55.8027V94.8408C56.0853 94.3258 56.3451 93.9863 56.582 93.8223C56.8236 93.6582 57.0879 93.5762 57.375 93.5762C57.7897 93.5762 58.2113 93.7083 58.6396 93.9727L58.2158 95.1143C57.915 94.9365 57.6143 94.8477 57.3135 94.8477C57.0446 94.8477 56.8031 94.9297 56.5889 95.0938C56.3747 95.2533 56.222 95.4766 56.1309 95.7637C55.9941 96.2012 55.9258 96.6797 55.9258 97.1992V101H54.6953ZM64.1084 100.104C63.6527 100.492 63.2129 100.765 62.7891 100.925C62.3698 101.084 61.9186 101.164 61.4355 101.164C60.638 101.164 60.0251 100.97 59.5967 100.583C59.1683 100.191 58.9541 99.6921 58.9541 99.0859C58.9541 98.7305 59.0339 98.4069 59.1934 98.1152C59.3574 97.819 59.5693 97.582 59.8291 97.4043C60.0934 97.2266 60.3896 97.0921 60.7178 97.001C60.9593 96.9372 61.3239 96.8757 61.8115 96.8164C62.805 96.6979 63.5365 96.5566 64.0059 96.3926C64.0104 96.224 64.0127 96.1169 64.0127 96.0713C64.0127 95.57 63.8965 95.2168 63.6641 95.0117C63.3496 94.7337 62.8825 94.5947 62.2627 94.5947C61.6839 94.5947 61.2555 94.6973 60.9775 94.9023C60.7041 95.1029 60.5013 95.4606 60.3691 95.9756L59.166 95.8115C59.2754 95.2965 59.4554 94.8818 59.7061 94.5674C59.9567 94.2484 60.319 94.0046 60.793 93.8359C61.2669 93.6628 61.8161 93.5762 62.4404 93.5762C63.0602 93.5762 63.5638 93.6491 63.9512 93.7949C64.3385 93.9408 64.6234 94.1253 64.8057 94.3486C64.988 94.5674 65.1156 94.8454 65.1885 95.1826C65.2295 95.3923 65.25 95.7705 65.25 96.3174V97.958C65.25 99.1019 65.2751 99.8265 65.3252 100.132C65.3799 100.433 65.4847 100.722 65.6396 101H64.3545C64.2269 100.745 64.1449 100.446 64.1084 100.104ZM64.0059 97.3564C63.5592 97.5387 62.8893 97.6937 61.9961 97.8213C61.4902 97.8942 61.1325 97.9762 60.9229 98.0674C60.7132 98.1585 60.5514 98.293 60.4375 98.4707C60.3236 98.6439 60.2666 98.8376 60.2666 99.0518C60.2666 99.3799 60.3896 99.6533 60.6357 99.8721C60.8864 100.091 61.251 100.2 61.7295 100.2C62.2035 100.2 62.625 100.098 62.9941 99.8926C63.3633 99.6829 63.6344 99.3981 63.8076 99.0381C63.9398 98.7601 64.0059 98.3499 64.0059 97.8076V97.3564ZM67.1504 101V93.7402H68.2578V94.8408C68.5404 94.3258 68.8001 93.9863 69.0371 93.8223C69.2786 93.6582 69.543 93.5762 69.8301 93.5762C70.2448 93.5762 70.6663 93.7083 71.0947 93.9727L70.6709 95.1143C70.3701 94.9365 70.0693 94.8477 69.7686 94.8477C69.4997 94.8477 69.2581 94.9297 69.0439 95.0938C68.8298 95.2533 68.6771 95.4766 68.5859 95.7637C68.4492 96.2012 68.3809 96.6797 68.3809 97.1992V101H67.1504Z" fill="#003C44"/>
<circle cx="52.5" cy="42.5" r="41.5" fill="white" stroke="#32BCAD" stroke-width="2"/>
<path d="M50.3333 56.3334C49.8611 56.3334 49.4653 56.1736 49.1458 55.8542C48.8264 55.5347 48.6667 55.1389 48.6667 54.6667V44.6667L39 32.3334C38.5833 31.7778 38.5208 31.1945 38.8125 30.5834C39.1042 29.9722 39.6111 29.6667 40.3333 29.6667H63.6667C64.3889 29.6667 64.8958 29.9722 65.1875 30.5834C65.4792 31.1945 65.4167 31.7778 65 32.3334L55.3333 44.6667V54.6667C55.3333 55.1389 55.1736 55.5347 54.8542 55.8542C54.5347 56.1736 54.1389 56.3334 53.6667 56.3334H50.3333ZM52 43.5L60.25 33H43.75L52 43.5Z" fill="#32BCAD"/>
</svg>
