<svg width="117" height="40" viewBox="0 0 117 40" fill="none" xmlns="http://www.w3.org/2000/svg">
<rect x="0.5" y="0.5" width="116" height="39" rx="7.5" fill="#32BCAD" stroke="white"/>
<path d="M24 24L19 19L20.4 17.55L23 20.15V12H25V20.15L27.6 17.55L29 19L24 24ZM18 28C17.45 28 16.9792 27.8042 16.5875 27.4125C16.1958 27.0208 16 26.55 16 26V23H18V26H30V23H32V26C32 26.55 31.8042 27.0208 31.4125 27.4125C31.0208 27.8042 30.55 28 30 28H18Z" fill="white"/>
<path d="M45.2656 26V14.5469H53.5469V15.8984H46.7812V19.4062H53.1172V20.75H46.7812V24.6484H53.8125V26H45.2656ZM54.7891 26L57.8203 21.6875L55.0156 17.7031H56.7734L58.0469 19.6484C58.2865 20.0182 58.4792 20.3281 58.625 20.5781C58.8542 20.2344 59.0651 19.9297 59.2578 19.6641L60.6562 17.7031H62.3359L59.4688 21.6094L62.5547 26H60.8281L59.125 23.4219L58.6719 22.7266L56.4922 26H54.7891ZM63.7266 29.1797V17.7031H65.0078V18.7812C65.3099 18.3594 65.651 18.0443 66.0312 17.8359C66.4115 17.6224 66.8724 17.5156 67.4141 17.5156C68.1224 17.5156 68.7474 17.6979 69.2891 18.0625C69.8307 18.4271 70.2396 18.9427 70.5156 19.6094C70.7917 20.2708 70.9297 20.9974 70.9297 21.7891C70.9297 22.638 70.776 23.4036 70.4688 24.0859C70.1667 24.763 69.724 25.2839 69.1406 25.6484C68.5625 26.0078 67.9531 26.1875 67.3125 26.1875C66.8438 26.1875 66.4219 26.0885 66.0469 25.8906C65.6771 25.6927 65.3724 25.4427 65.1328 25.1406V29.1797H63.7266ZM65 21.8984C65 22.9661 65.2161 23.7552 65.6484 24.2656C66.0807 24.776 66.6042 25.0312 67.2188 25.0312C67.8438 25.0312 68.3776 24.7682 68.8203 24.2422C69.2682 23.7109 69.4922 22.8906 69.4922 21.7812C69.4922 20.724 69.2734 19.9323 68.8359 19.4062C68.4036 18.8802 67.8854 18.6172 67.2812 18.6172C66.6823 18.6172 66.151 18.8984 65.6875 19.4609C65.2292 20.0182 65 20.8307 65 21.8984ZM72.1094 21.8516C72.1094 20.3151 72.5365 19.1771 73.3906 18.4375C74.1042 17.8229 74.974 17.5156 76 17.5156C77.1406 17.5156 78.0729 17.8906 78.7969 18.6406C79.5208 19.3854 79.8828 20.4167 79.8828 21.7344C79.8828 22.8021 79.7214 23.6432 79.3984 24.2578C79.0807 24.8672 78.6146 25.3411 78 25.6797C77.3906 26.0182 76.724 26.1875 76 26.1875C74.8385 26.1875 73.8984 25.8151 73.1797 25.0703C72.4661 24.3255 72.1094 23.2526 72.1094 21.8516ZM73.5547 21.8516C73.5547 22.9141 73.7865 23.7109 74.25 24.2422C74.7135 24.7682 75.2969 25.0312 76 25.0312C76.6979 25.0312 77.2786 24.7656 77.7422 24.2344C78.2057 23.7031 78.4375 22.8932 78.4375 21.8047C78.4375 20.7786 78.2031 20.0026 77.7344 19.4766C77.2708 18.9453 76.6927 18.6797 76 18.6797C75.2969 18.6797 74.7135 18.9427 74.25 19.4688C73.7865 19.9948 73.5547 20.7891 73.5547 21.8516ZM81.5234 26V17.7031H82.7891V18.9609C83.112 18.3724 83.4089 17.9844 83.6797 17.7969C83.9557 17.6094 84.2578 17.5156 84.5859 17.5156C85.0599 17.5156 85.5417 17.6667 86.0312 17.9688L85.5469 19.2734C85.2031 19.0703 84.8594 18.9688 84.5156 18.9688C84.2083 18.9688 83.9323 19.0625 83.6875 19.25C83.4427 19.4323 83.2682 19.6875 83.1641 20.0156C83.0078 20.5156 82.9297 21.0625 82.9297 21.6562V26H81.5234ZM89.9375 24.7422L90.1406 25.9844C89.7448 26.0677 89.3906 26.1094 89.0781 26.1094C88.5677 26.1094 88.1719 26.0286 87.8906 25.8672C87.6094 25.7057 87.4115 25.4948 87.2969 25.2344C87.1823 24.9688 87.125 24.4141 87.125 23.5703V18.7969H86.0938V17.7031H87.125V15.6484L88.5234 14.8047V17.7031H89.9375V18.7969H88.5234V23.6484C88.5234 24.0495 88.5469 24.3073 88.5938 24.4219C88.6458 24.5365 88.7266 24.6276 88.8359 24.6953C88.9505 24.763 89.112 24.7969 89.3203 24.7969C89.4766 24.7969 89.6823 24.7786 89.9375 24.7422ZM96.7344 24.9766C96.2135 25.4193 95.7109 25.7318 95.2266 25.9141C94.7474 26.0964 94.2318 26.1875 93.6797 26.1875C92.7682 26.1875 92.0677 25.9661 91.5781 25.5234C91.0885 25.0755 90.8438 24.5052 90.8438 23.8125C90.8438 23.4062 90.9349 23.0365 91.1172 22.7031C91.3047 22.3646 91.5469 22.0938 91.8438 21.8906C92.1458 21.6875 92.4844 21.5339 92.8594 21.4297C93.1354 21.3568 93.5521 21.2865 94.1094 21.2188C95.2448 21.0833 96.0807 20.9219 96.6172 20.7344C96.6224 20.5417 96.625 20.4193 96.625 20.3672C96.625 19.7943 96.4922 19.3906 96.2266 19.1562C95.8672 18.8385 95.3333 18.6797 94.625 18.6797C93.9635 18.6797 93.474 18.7969 93.1562 19.0312C92.8438 19.2604 92.612 19.6693 92.4609 20.2578L91.0859 20.0703C91.2109 19.4818 91.4167 19.0078 91.7031 18.6484C91.9896 18.2839 92.4036 18.0052 92.9453 17.8125C93.487 17.6146 94.1146 17.5156 94.8281 17.5156C95.5365 17.5156 96.112 17.599 96.5547 17.7656C96.9974 17.9323 97.3229 18.1432 97.5312 18.3984C97.7396 18.6484 97.8854 18.9661 97.9688 19.3516C98.0156 19.5911 98.0391 20.0234 98.0391 20.6484V22.5234C98.0391 23.8307 98.0677 24.6589 98.125 25.0078C98.1875 25.3516 98.3073 25.6823 98.4844 26H97.0156C96.8698 25.7083 96.776 25.3672 96.7344 24.9766ZM96.6172 21.8359C96.1068 22.0443 95.3411 22.2214 94.3203 22.3672C93.7422 22.4505 93.3333 22.5443 93.0938 22.6484C92.8542 22.7526 92.6693 22.9062 92.5391 23.1094C92.4089 23.3073 92.3438 23.5286 92.3438 23.7734C92.3438 24.1484 92.4844 24.4609 92.7656 24.7109C93.0521 24.9609 93.4688 25.0859 94.0156 25.0859C94.5573 25.0859 95.0391 24.9688 95.4609 24.7344C95.8828 24.4948 96.1927 24.1693 96.3906 23.7578C96.5417 23.4401 96.6172 22.9714 96.6172 22.3516V21.8359ZM100.211 26V17.7031H101.477V18.9609C101.799 18.3724 102.096 17.9844 102.367 17.7969C102.643 17.6094 102.945 17.5156 103.273 17.5156C103.747 17.5156 104.229 17.6667 104.719 17.9688L104.234 19.2734C103.891 19.0703 103.547 18.9688 103.203 18.9688C102.896 18.9688 102.62 19.0625 102.375 19.25C102.13 19.4323 101.956 19.6875 101.852 20.0156C101.695 20.5156 101.617 21.0625 101.617 21.6562V26H100.211Z" fill="white"/>
</svg>
