<svg width="112" height="42" viewBox="0 0 112 42" fill="none" xmlns="http://www.w3.org/2000/svg">
<rect x="1" y="1" width="110" height="40" rx="8" fill="white" stroke="#32BCAD"/>
<path d="M53.1074 26V15.9785H60.3535V17.1611H54.4336V20.2305H59.9775V21.4062H54.4336V24.8174H60.5859V26H53.1074ZM66.9707 26V25.084C66.5104 25.804 65.8337 26.1641 64.9404 26.1641C64.3617 26.1641 63.8285 26.0046 63.3408 25.6855C62.8577 25.3665 62.4818 24.9222 62.2129 24.3525C61.9486 23.7783 61.8164 23.1198 61.8164 22.377C61.8164 21.6523 61.9372 20.9961 62.1787 20.4082C62.4202 19.8158 62.7826 19.3623 63.2656 19.0479C63.7487 18.7334 64.2887 18.5762 64.8857 18.5762C65.3232 18.5762 65.7129 18.6696 66.0547 18.8564C66.3965 19.0387 66.6745 19.278 66.8887 19.5742V15.9785H68.1123V26H66.9707ZM63.0811 22.377C63.0811 23.3066 63.277 24.0016 63.6689 24.4619C64.0609 24.9222 64.5234 25.1523 65.0566 25.1523C65.5944 25.1523 66.0501 24.9336 66.4238 24.4961C66.8021 24.054 66.9912 23.3818 66.9912 22.4795C66.9912 21.486 66.7998 20.7568 66.417 20.292C66.0342 19.8271 65.5625 19.5947 65.002 19.5947C64.4551 19.5947 63.9971 19.818 63.6279 20.2646C63.2633 20.7113 63.0811 21.4154 63.0811 22.377ZM70.0605 17.3936V15.9785H71.291V17.3936H70.0605ZM70.0605 26V18.7402H71.291V26H70.0605ZM75.8574 24.8994L76.0352 25.9863C75.6888 26.0592 75.3789 26.0957 75.1055 26.0957C74.6589 26.0957 74.3125 26.0251 74.0664 25.8838C73.8203 25.7425 73.6471 25.5579 73.5469 25.3301C73.4466 25.0977 73.3965 24.6123 73.3965 23.874V19.6973H72.4941V18.7402H73.3965V16.9424L74.6201 16.2041V18.7402H75.8574V19.6973H74.6201V23.9424C74.6201 24.2933 74.6406 24.5189 74.6816 24.6191C74.7272 24.7194 74.7979 24.7992 74.8936 24.8584C74.9938 24.9176 75.1351 24.9473 75.3174 24.9473C75.4541 24.9473 75.6341 24.9313 75.8574 24.8994ZM81.8047 25.1045C81.349 25.4919 80.9092 25.7653 80.4854 25.9248C80.0661 26.0843 79.6149 26.1641 79.1318 26.1641C78.3343 26.1641 77.7214 25.9704 77.293 25.583C76.8646 25.1911 76.6504 24.6921 76.6504 24.0859C76.6504 23.7305 76.7301 23.4069 76.8896 23.1152C77.0537 22.819 77.2656 22.582 77.5254 22.4043C77.7897 22.2266 78.0859 22.0921 78.4141 22.001C78.6556 21.9372 79.0202 21.8757 79.5078 21.8164C80.5013 21.6979 81.2327 21.5566 81.7021 21.3926C81.7067 21.224 81.709 21.1169 81.709 21.0713C81.709 20.57 81.5928 20.2168 81.3604 20.0117C81.0459 19.7337 80.5788 19.5947 79.959 19.5947C79.3802 19.5947 78.9518 19.6973 78.6738 19.9023C78.4004 20.1029 78.1976 20.4606 78.0654 20.9756L76.8623 20.8115C76.9717 20.2965 77.1517 19.8818 77.4023 19.5674C77.653 19.2484 78.0153 19.0046 78.4893 18.8359C78.9632 18.6628 79.5124 18.5762 80.1367 18.5762C80.7565 18.5762 81.2601 18.6491 81.6475 18.7949C82.0348 18.9408 82.3197 19.1253 82.502 19.3486C82.6842 19.5674 82.8118 19.8454 82.8848 20.1826C82.9258 20.3923 82.9463 20.7705 82.9463 21.3174V22.958C82.9463 24.1019 82.9714 24.8265 83.0215 25.1318C83.0762 25.4326 83.181 25.722 83.3359 26H82.0508C81.9232 25.7448 81.8411 25.4463 81.8047 25.1045ZM81.7021 22.3564C81.2555 22.5387 80.5856 22.6937 79.6924 22.8213C79.1865 22.8942 78.8288 22.9762 78.6191 23.0674C78.4095 23.1585 78.2477 23.293 78.1338 23.4707C78.0199 23.6439 77.9629 23.8376 77.9629 24.0518C77.9629 24.3799 78.0859 24.6533 78.332 24.8721C78.5827 25.0908 78.9473 25.2002 79.4258 25.2002C79.8997 25.2002 80.3213 25.0977 80.6904 24.8926C81.0596 24.6829 81.3307 24.3981 81.5039 24.0381C81.6361 23.7601 81.7021 23.3499 81.7021 22.8076V22.3564ZM84.8467 26V18.7402H85.9541V19.8408C86.2367 19.3258 86.4964 18.9863 86.7334 18.8223C86.9749 18.6582 87.2393 18.5762 87.5264 18.5762C87.9411 18.5762 88.3626 18.7083 88.791 18.9727L88.3672 20.1143C88.0664 19.9365 87.7656 19.8477 87.4648 19.8477C87.196 19.8477 86.9544 19.9297 86.7402 20.0938C86.526 20.2533 86.3734 20.4766 86.2822 20.7637C86.1455 21.2012 86.0771 21.6797 86.0771 22.1992V26H84.8467Z" fill="#32BCAD"/>
<path d="M29 30C28.45 30 27.9792 29.8042 27.5875 29.4125C27.1958 29.0208 27 28.55 27 28V14C27 13.45 27.1958 12.9792 27.5875 12.5875C27.9792 12.1958 28.45 12 29 12H37.925L35.925 14H29V28H43V21.05L45 19.05V28C45 28.55 44.8042 29.0208 44.4125 29.4125C44.0208 29.8042 43.55 30 43 30H29ZM33 24V19.75L42.175 10.575C42.375 10.375 42.6 10.225 42.85 10.125C43.1 10.025 43.35 9.97501 43.6 9.97501C43.8667 9.97501 44.1208 10.025 44.3625 10.125C44.6042 10.225 44.825 10.375 45.025 10.575L46.425 12C46.6083 12.2 46.75 12.4208 46.85 12.6625C46.95 12.9042 47 13.15 47 13.4C47 13.65 46.9542 13.8958 46.8625 14.1375C46.7708 14.3792 46.625 14.6 46.425 14.8L37.25 24H33ZM35 22H36.4L42.2 16.2L41.5 15.5L40.775 14.8L35 20.575V22Z" fill="#32BCAD"/>
</svg>
