<svg width="110" height="40" viewBox="0 0 110 40" fill="none" xmlns="http://www.w3.org/2000/svg">
<rect width="110" height="40" rx="8" fill="#32BCAD"/>
<g clip-path="url(#clip0_403_1249)">
<path d="M28 29C27.45 29 26.9792 28.8042 26.5875 28.4125C26.1958 28.0208 26 27.55 26 27V13C26 12.45 26.1958 11.9792 26.5875 11.5875C26.9792 11.1958 27.45 11 28 11H36.925L34.925 13H28V27H42V20.05L44 18.05V27C44 27.55 43.8042 28.0208 43.4125 28.4125C43.0208 28.8042 42.55 29 42 29H28ZM32 23V18.75L41.175 9.57501C41.375 9.37501 41.6 9.22501 41.85 9.12501C42.1 9.02501 42.35 8.97501 42.6 8.97501C42.8667 8.97501 43.1208 9.02501 43.3625 9.12501C43.6042 9.22501 43.825 9.37501 44.025 9.57501L45.425 11C45.6083 11.2 45.75 11.4208 45.85 11.6625C45.95 11.9042 46 12.15 46 12.4C46 12.65 45.9542 12.8958 45.8625 13.1375C45.7708 13.3792 45.625 13.6 45.425 13.8L36.25 23H32ZM34 21H35.4L41.2 15.2L40.5 14.5L39.775 13.8L34 19.575V21Z" fill="white"/>
</g>
<path d="M52.1074 25V14.9785H59.3535V16.1611H53.4336V19.2305H58.9775V20.4062H53.4336V23.8174H59.5859V25H52.1074ZM65.9707 25V24.084C65.5104 24.804 64.8337 25.1641 63.9404 25.1641C63.3617 25.1641 62.8285 25.0046 62.3408 24.6855C61.8577 24.3665 61.4818 23.9222 61.2129 23.3525C60.9486 22.7783 60.8164 22.1198 60.8164 21.377C60.8164 20.6523 60.9372 19.9961 61.1787 19.4082C61.4202 18.8158 61.7826 18.3623 62.2656 18.0479C62.7487 17.7334 63.2887 17.5762 63.8857 17.5762C64.3232 17.5762 64.7129 17.6696 65.0547 17.8564C65.3965 18.0387 65.6745 18.278 65.8887 18.5742V14.9785H67.1123V25H65.9707ZM62.0811 21.377C62.0811 22.3066 62.277 23.0016 62.6689 23.4619C63.0609 23.9222 63.5234 24.1523 64.0566 24.1523C64.5944 24.1523 65.0501 23.9336 65.4238 23.4961C65.8021 23.054 65.9912 22.3818 65.9912 21.4795C65.9912 20.486 65.7998 19.7568 65.417 19.292C65.0342 18.8271 64.5625 18.5947 64.002 18.5947C63.4551 18.5947 62.9971 18.818 62.6279 19.2646C62.2633 19.7113 62.0811 20.4154 62.0811 21.377ZM69.0605 16.3936V14.9785H70.291V16.3936H69.0605ZM69.0605 25V17.7402H70.291V25H69.0605ZM74.8574 23.8994L75.0352 24.9863C74.6888 25.0592 74.3789 25.0957 74.1055 25.0957C73.6589 25.0957 73.3125 25.0251 73.0664 24.8838C72.8203 24.7425 72.6471 24.5579 72.5469 24.3301C72.4466 24.0977 72.3965 23.6123 72.3965 22.874V18.6973H71.4941V17.7402H72.3965V15.9424L73.6201 15.2041V17.7402H74.8574V18.6973H73.6201V22.9424C73.6201 23.2933 73.6406 23.5189 73.6816 23.6191C73.7272 23.7194 73.7979 23.7992 73.8936 23.8584C73.9938 23.9176 74.1351 23.9473 74.3174 23.9473C74.4541 23.9473 74.6341 23.9313 74.8574 23.8994ZM80.8047 24.1045C80.349 24.4919 79.9092 24.7653 79.4854 24.9248C79.0661 25.0843 78.6149 25.1641 78.1318 25.1641C77.3343 25.1641 76.7214 24.9704 76.293 24.583C75.8646 24.1911 75.6504 23.6921 75.6504 23.0859C75.6504 22.7305 75.7301 22.4069 75.8896 22.1152C76.0537 21.819 76.2656 21.582 76.5254 21.4043C76.7897 21.2266 77.0859 21.0921 77.4141 21.001C77.6556 20.9372 78.0202 20.8757 78.5078 20.8164C79.5013 20.6979 80.2327 20.5566 80.7021 20.3926C80.7067 20.224 80.709 20.1169 80.709 20.0713C80.709 19.57 80.5928 19.2168 80.3604 19.0117C80.0459 18.7337 79.5788 18.5947 78.959 18.5947C78.3802 18.5947 77.9518 18.6973 77.6738 18.9023C77.4004 19.1029 77.1976 19.4606 77.0654 19.9756L75.8623 19.8115C75.9717 19.2965 76.1517 18.8818 76.4023 18.5674C76.653 18.2484 77.0153 18.0046 77.4893 17.8359C77.9632 17.6628 78.5124 17.5762 79.1367 17.5762C79.7565 17.5762 80.2601 17.6491 80.6475 17.7949C81.0348 17.9408 81.3197 18.1253 81.502 18.3486C81.6842 18.5674 81.8118 18.8454 81.8848 19.1826C81.9258 19.3923 81.9463 19.7705 81.9463 20.3174V21.958C81.9463 23.1019 81.9714 23.8265 82.0215 24.1318C82.0762 24.4326 82.181 24.722 82.3359 25H81.0508C80.9232 24.7448 80.8411 24.4463 80.8047 24.1045ZM80.7021 21.3564C80.2555 21.5387 79.5856 21.6937 78.6924 21.8213C78.1865 21.8942 77.8288 21.9762 77.6191 22.0674C77.4095 22.1585 77.2477 22.293 77.1338 22.4707C77.0199 22.6439 76.9629 22.8376 76.9629 23.0518C76.9629 23.3799 77.0859 23.6533 77.332 23.8721C77.5827 24.0908 77.9473 24.2002 78.4258 24.2002C78.8997 24.2002 79.3213 24.0977 79.6904 23.8926C80.0596 23.6829 80.3307 23.3981 80.5039 23.0381C80.6361 22.7601 80.7021 22.3499 80.7021 21.8076V21.3564ZM83.8467 25V17.7402H84.9541V18.8408C85.2367 18.3258 85.4964 17.9863 85.7334 17.8223C85.9749 17.6582 86.2393 17.5762 86.5264 17.5762C86.9411 17.5762 87.3626 17.7083 87.791 17.9727L87.3672 19.1143C87.0664 18.9365 86.7656 18.8477 86.4648 18.8477C86.196 18.8477 85.9544 18.9297 85.7402 19.0938C85.526 19.2533 85.3734 19.4766 85.2822 19.7637C85.1455 20.2012 85.0771 20.6797 85.0771 21.1992V25H83.8467Z" fill="white"/>
<defs>
<clipPath id="clip0_403_1249">
<rect width="24" height="24" fill="white" transform="translate(23 8)"/>
</clipPath>
</defs>
</svg>
