<svg width="106" height="103" viewBox="0 0 106 103" fill="none" xmlns="http://www.w3.org/2000/svg">
<path d="M36.2451 100V89.9785H43.0059V91.1611H37.5713V94.2646H42.2744V95.4473H37.5713V100H36.2451ZM44.585 91.3936V89.9785H45.8154V91.3936H44.585ZM44.585 100V92.7402H45.8154V100H44.585ZM47.668 100V89.9785H48.8984V100H47.668ZM53.499 98.8994L53.6768 99.9863C53.3304 100.059 53.0205 100.096 52.7471 100.096C52.3005 100.096 51.9541 100.025 51.708 99.8838C51.4619 99.7425 51.2887 99.5579 51.1885 99.3301C51.0882 99.0977 51.0381 98.6123 51.0381 97.874V93.6973H50.1357V92.7402H51.0381V90.9424L52.2617 90.2041V92.7402H53.499V93.6973H52.2617V97.9424C52.2617 98.2933 52.2822 98.5189 52.3232 98.6191C52.3688 98.7194 52.4395 98.7992 52.5352 98.8584C52.6354 98.9176 52.7767 98.9473 52.959 98.9473C53.0957 98.9473 53.2757 98.9313 53.499 98.8994ZM54.6953 100V92.7402H55.8027V93.8408C56.0853 93.3258 56.3451 92.9863 56.582 92.8223C56.8236 92.6582 57.0879 92.5762 57.375 92.5762C57.7897 92.5762 58.2113 92.7083 58.6396 92.9727L58.2158 94.1143C57.915 93.9365 57.6143 93.8477 57.3135 93.8477C57.0446 93.8477 56.8031 93.9297 56.5889 94.0938C56.3747 94.2533 56.222 94.4766 56.1309 94.7637C55.9941 95.2012 55.9258 95.6797 55.9258 96.1992V100H54.6953ZM64.1084 99.1045C63.6527 99.4919 63.2129 99.7653 62.7891 99.9248C62.3698 100.084 61.9186 100.164 61.4355 100.164C60.638 100.164 60.0251 99.9704 59.5967 99.583C59.1683 99.1911 58.9541 98.6921 58.9541 98.0859C58.9541 97.7305 59.0339 97.4069 59.1934 97.1152C59.3574 96.819 59.5693 96.582 59.8291 96.4043C60.0934 96.2266 60.3896 96.0921 60.7178 96.001C60.9593 95.9372 61.3239 95.8757 61.8115 95.8164C62.805 95.6979 63.5365 95.5566 64.0059 95.3926C64.0104 95.224 64.0127 95.1169 64.0127 95.0713C64.0127 94.57 63.8965 94.2168 63.6641 94.0117C63.3496 93.7337 62.8825 93.5947 62.2627 93.5947C61.6839 93.5947 61.2555 93.6973 60.9775 93.9023C60.7041 94.1029 60.5013 94.4606 60.3691 94.9756L59.166 94.8115C59.2754 94.2965 59.4554 93.8818 59.7061 93.5674C59.9567 93.2484 60.319 93.0046 60.793 92.8359C61.2669 92.6628 61.8161 92.5762 62.4404 92.5762C63.0602 92.5762 63.5638 92.6491 63.9512 92.7949C64.3385 92.9408 64.6234 93.1253 64.8057 93.3486C64.988 93.5674 65.1156 93.8454 65.1885 94.1826C65.2295 94.3923 65.25 94.7705 65.25 95.3174V96.958C65.25 98.1019 65.2751 98.8265 65.3252 99.1318C65.3799 99.4326 65.4847 99.722 65.6396 100H64.3545C64.2269 99.7448 64.1449 99.4463 64.1084 99.1045ZM64.0059 96.3564C63.5592 96.5387 62.8893 96.6937 61.9961 96.8213C61.4902 96.8942 61.1325 96.9762 60.9229 97.0674C60.7132 97.1585 60.5514 97.293 60.4375 97.4707C60.3236 97.6439 60.2666 97.8376 60.2666 98.0518C60.2666 98.3799 60.3896 98.6533 60.6357 98.8721C60.8864 99.0908 61.251 99.2002 61.7295 99.2002C62.2035 99.2002 62.625 99.0977 62.9941 98.8926C63.3633 98.6829 63.6344 98.3981 63.8076 98.0381C63.9398 97.7601 64.0059 97.3499 64.0059 96.8076V96.3564ZM67.1504 100V92.7402H68.2578V93.8408C68.5404 93.3258 68.8001 92.9863 69.0371 92.8223C69.2786 92.6582 69.543 92.5762 69.8301 92.5762C70.2448 92.5762 70.6663 92.7083 71.0947 92.9727L70.6709 94.1143C70.3701 93.9365 70.0693 93.8477 69.7686 93.8477C69.4997 93.8477 69.2581 93.9297 69.0439 94.0938C68.8298 94.2533 68.6771 94.4766 68.5859 94.7637C68.4492 95.2012 68.3809 95.6797 68.3809 96.1992V100H67.1504Z" fill="#003C44"/>
<circle cx="52.5" cy="41.5" r="41.5" fill="#32BCAD"/>
<path d="M50.3333 55.3334C49.8611 55.3334 49.4653 55.1736 49.1458 54.8542C48.8264 54.5347 48.6667 54.1389 48.6667 53.6667V43.6667L39 31.3334C38.5833 30.7778 38.5208 30.1945 38.8125 29.5834C39.1042 28.9722 39.6111 28.6667 40.3333 28.6667H63.6667C64.3889 28.6667 64.8958 28.9722 65.1875 29.5834C65.4792 30.1945 65.4167 30.7778 65 31.3334L55.3333 43.6667V53.6667C55.3333 54.1389 55.1736 54.5347 54.8542 54.8542C54.5347 55.1736 54.1389 55.3334 53.6667 55.3334H50.3333ZM52 42.5L60.25 32H43.75L52 42.5Z" fill="white"/>
</svg>
